<svg viewBox="0 0 20 20" fill="currentColor" xmlns="http://www.w3.org/2000/svg">
  <path d="M4.96387 17.686H15.0449C16.8027 17.686 17.6904 16.8071 17.6904 15.0669V4.92432C17.6904 3.19287 16.8027 2.31396 15.0449 2.31396H4.96387C3.20605 2.31396 2.30957 3.19287 2.30957 4.92432V15.0669C2.30957 16.8071 3.20605 17.686 4.96387 17.686ZM5.00781 16.2534C4.19922 16.2534 3.75098 15.8228 3.75098 14.979V5.021C3.75098 4.17725 4.19922 3.74658 5.00781 3.74658H14.9922C15.8008 3.74658 16.2578 4.17725 16.2578 5.021V14.979C16.2578 15.8228 15.8008 16.2534 14.9922 16.2534H5.00781ZM12.6016 12.0786C12.9883 12.0786 13.2344 11.7974 13.2344 11.3843V7.49072C13.2344 6.96338 12.9531 6.75244 12.4961 6.75244H8.56738C8.16309 6.75244 7.89941 6.99854 7.89941 7.38525C7.89941 7.77197 8.17188 8.01807 8.58496 8.01807H10.0615L11.2656 7.88623L9.99121 9.06396L6.97656 12.0874C6.84473 12.2104 6.76562 12.3774 6.76562 12.5532C6.76562 12.9575 7.0293 13.2124 7.41602 13.2124C7.61816 13.2124 7.78516 13.1333 7.9082 13.0103L10.9229 9.99561L12.0918 8.73877L11.9688 9.99561V11.4019C11.9688 11.8149 12.2236 12.0786 12.6016 12.0786Z" />
</svg>
