<svg viewBox="0 0 40 40" fill="currentColor" xmlns="http://www.w3.org/2000/svg">
  <path d="M4.05138 31.3791L18.4868 39.5598C19.514 40.1467 20.4861 40.1467 21.5316 39.5598L35.9487 31.3791C37.6362 30.407 38.5166 29.4532 38.5166 26.8302V12.3031C38.5166 10.3955 37.8196 9.2216 36.2788 8.32282L23.2925 0.949215C21.0731 -0.316405 18.927 -0.316405 16.7076 0.949215L3.73956 8.32282C2.18047 9.2216 1.48346 10.3955 1.48346 12.3031V26.8302C1.48346 29.4532 2.38223 30.407 4.05138 31.3791ZM28.6301 13.6054L14.4148 5.57148L17.9365 3.57217C19.3489 2.7651 20.6512 2.74676 22.0819 3.57217L34.1695 10.4689L28.6301 13.6054ZM20.0092 18.4845L5.84893 10.4689L11.5167 7.22229L25.677 15.2746L20.0092 18.4845ZM5.70219 28.9579C4.63834 28.3526 4.27149 27.7473 4.27149 26.7385V12.8901L18.5602 21.0524V36.2765L5.70219 28.9579ZM34.3162 28.9579L21.4399 36.2765V21.0524L35.7286 12.8901V26.7385C35.7286 27.7473 35.3617 28.3526 34.3162 28.9579Z" />
</svg>